<svg width="54" height="44" viewBox="0 0 54 44" fill="none" xmlns="http://www.w3.org/2000/svg">
<path d="M36.8778 19.884C38.3211 19.285 39.902 18.9107 41.5513 18.9107C48.3205 18.9478 53.7842 24.5648 53.7842 31.4552C53.7842 38.3455 48.3205 44 41.5513 44C34.7818 44 29.3184 38.383 29.3184 31.4552C27.6003 13.0315 47.599 0 47.599 0L49.1795 2.05964C49.1795 2.0971 35.9503 13.2562 36.8778 19.884Z" fill="#FFF3E5"/>
<path d="M7.66429 19.884C9.10759 19.285 10.6881 18.9107 12.3374 18.9107C19.1069 18.9107 24.5703 24.5274 24.5703 31.4552C24.5703 38.383 19.1069 44 12.3374 44C5.56827 44 0.104542 38.383 0.104542 31.4552C-1.61354 13.0315 18.3854 0 18.3854 0L19.9659 2.05964C19.9659 2.0971 6.73647 13.2562 7.66429 19.884Z" fill="#FFF3E5"/>
</svg>
